<?xml version="1.0" encoding="UTF-8"?>
<!-- Generated by Pixelmator Pro 2.4 -->
<svg width="1600" height="1600" viewBox="0 0 1600 1600" xmlns="http://www.w3.org/2000/svg" xmlns:xlink="http://www.w3.org/1999/xlink">
    <g id="Group">
        <path id="Shape" fill="#646464" fill-rule="evenodd" stroke="#646464" stroke-width="20" stroke-linecap="round" stroke-linejoin="round" d="M 1448.155029 920.061584 C 1405.924683 930.004944 1347.075439 943.858826 1300.12854 954.89917 C 1292.186279 978.658264 1282.58313 1001.828857 1271.389893 1024.23999 C 1296.783081 1065.236938 1328.592773 1116.659668 1351.463379 1153.570313 C 1368.904297 1181.771851 1371.646606 1210.889282 1338.410278 1244.130737 L 1253.125977 1329.437012 C 1219.890381 1362.678589 1190.767334 1359.908813 1162.577637 1342.45166 C 1125.666382 1319.603149 1074.221802 1287.770874 1033.252808 1262.37793 C 1010.835449 1273.583252 987.650879 1283.183228 963.873779 1291.105713 C 952.849854 1338.036743 939.029541 1396.901855 929.047363 1439.154785 C 921.47876 1471.442017 902.831299 1494 855.829468 1494 L 735.170532 1494 C 688.168701 1494 669.52124 1471.453003 661.952637 1439.154785 C 651.970459 1396.92395 638.150146 1338.036743 627.126221 1291.105713 C 603.349121 1283.183228 580.164551 1273.583252 557.747192 1262.37793 C 516.778198 1287.754517 465.333618 1319.58667 428.422363 1342.45166 C 400.232666 1359.908813 371.10968 1362.678589 337.873962 1329.437012 L 252.589783 1244.130737 C 219.353394 1210.889282 222.095642 1181.771851 239.536682 1153.570313 C 262.407227 1116.659668 294.216919 1065.236938 319.610168 1024.23999 C 308.41687 1001.828857 298.81366 978.658264 290.87146 954.89917 C 243.9245 943.858826 185.075623 930.004944 142.844971 920.061584 C 110.541199 912.465454 88 893.834717 88 846.827026 L 88 726.172974 C 88 679.165283 110.541199 660.53418 142.844971 652.93811 C 185.075623 642.994751 243.9245 629.140808 290.87146 618.100464 C 298.81366 594.341736 308.41687 571.171143 319.610168 548.759766 C 294.216919 507.763062 262.407227 456.340332 239.536682 419.429321 C 222.095642 391.228149 219.353394 362.110718 252.589783 328.869263 L 337.873962 243.562988 C 371.10968 210.321167 400.232666 213.09082 428.422363 230.548218 C 465.333618 253.396484 516.778198 285.22876 557.747192 310.62207 C 580.164551 299.416748 603.349121 289.816528 627.126221 281.894287 C 638.150146 234.963257 651.970459 176.097778 661.952637 133.845215 C 669.52124 101.557739 688.168701 79 735.170532 79 L 855.829468 79 C 902.831299 79 921.47876 101.546997 929.047363 133.845215 C 939.029541 176.07605 952.849854 234.963257 963.873779 281.894287 C 987.650879 289.816528 1010.835449 299.416748 1033.252808 310.62207 C 1074.221802 285.245117 1125.666382 253.413208 1162.577637 230.548218 C 1190.767334 213.09082 1219.890381 210.321167 1253.125977 243.562988 L 1338.410278 328.869263 C 1371.646606 362.110718 1368.904297 391.228149 1351.463379 419.429321 C 1328.592773 456.340332 1296.783081 507.763062 1271.389893 548.759766 C 1282.58313 571.171143 1292.186279 594.341736 1300.12854 618.100464 C 1347.075439 629.140808 1405.924683 642.994751 1448.155029 652.93811 C 1480.45874 660.53418 1503 679.165283 1503 726.172974 L 1503 846.832336 C 1503 893.834717 1480.45874 912.465454 1448.155029 920.061584 Z M 795.5 512.276855 C 644.049683 512.276855 521.275208 635.051819 521.275208 786.502686 C 521.275208 937.953552 644.049683 1060.728516 795.5 1060.728516 C 946.950317 1060.728516 1069.724854 937.953552 1069.724854 786.502686 C 1069.724854 635.051819 946.950317 512.276855 795.5 512.276855 Z"/>
        <path id="Ellipse" fill="#646464" fill-rule="evenodd" stroke="#646464" stroke-width="20" stroke-linecap="round" stroke-linejoin="round" d="M 1078 783 C 1078 637.749146 956.669189 520 807 520 C 657.330811 520 536 637.749146 536 783 C 536 928.250916 657.330811 1046 807 1046 C 956.669189 1046 1078 928.250916 1078 783 Z"/>
    </g>
    <g id="g1">
        <path id="path1" fill="#ffffff" fill-rule="evenodd" stroke="#d5d5d5" stroke-width="20" stroke-linecap="round" stroke-linejoin="round" d="M 1181 1188 C 1181 1182.477173 1176.746704 1178 1171.5 1178 C 1166.253296 1178 1162 1182.477173 1162 1188 C 1162 1193.522827 1166.253296 1198 1171.5 1198 C 1176.746704 1198 1181 1193.522827 1181 1188 Z"/>
        <path id="Ellipse-copy-35" fill="#ffffff" fill-rule="evenodd" stroke="#d5d5d5" stroke-width="20" stroke-linecap="round" stroke-linejoin="round" d="M 1109 1281 C 1109 1275.477173 1104.746704 1271 1099.5 1271 C 1094.253296 1271 1090 1275.477173 1090 1281 C 1090 1286.522827 1094.253296 1291 1099.5 1291 C 1104.746704 1291 1109 1286.522827 1109 1281 Z"/>
        <path id="Ellipse-copy-34" fill="#ffffff" fill-rule="evenodd" stroke="#d5d5d5" stroke-width="20" stroke-linecap="round" stroke-linejoin="round" d="M 1049 1281 C 1049 1275.477173 1044.746704 1271 1039.5 1271 C 1034.253296 1271 1030 1275.477173 1030 1281 C 1030 1286.522827 1034.253296 1291 1039.5 1291 C 1044.746704 1291 1049 1286.522827 1049 1281 Z"/>
        <path id="Ellipse-copy-33" fill="#ffffff" fill-rule="evenodd" stroke="#d5d5d5" stroke-width="20" stroke-linecap="round" stroke-linejoin="round" d="M 1126 1056 C 1126 1050.477173 1121.746704 1046 1116.5 1046 C 1111.253296 1046 1107 1050.477173 1107 1056 C 1107 1061.522827 1111.253296 1066 1116.5 1066 C 1121.746704 1066 1126 1061.522827 1126 1056 Z"/>
        <path id="Ellipse-copy-32" fill="#ffffff" fill-rule="evenodd" stroke="#d5d5d5" stroke-width="20" stroke-linecap="round" stroke-linejoin="round" d="M 1128 980 C 1128 974.477173 1123.746704 970 1118.5 970 C 1113.253296 970 1109 974.477173 1109 980 C 1109 985.522827 1113.253296 990 1118.5 990 C 1123.746704 990 1128 985.522827 1128 980 Z"/>
        <path id="Ellipse-copy-31" fill="#ffffff" fill-rule="evenodd" stroke="#d5d5d5" stroke-width="20" stroke-linecap="round" stroke-linejoin="round" d="M 1128 735 C 1128 729.477173 1123.746704 725 1118.5 725 C 1113.253296 725 1109 729.477173 1109 735 C 1109 740.522827 1113.253296 745 1118.5 745 C 1123.746704 745 1128 740.522827 1128 735 Z"/>
        <path id="Ellipse-copy-22" fill="#ffffff" fill-rule="evenodd" stroke="#d5d5d5" stroke-width="20" stroke-linecap="round" stroke-linejoin="round" d="M 1103 663 C 1103 657.477173 1098.746704 653 1093.5 653 C 1088.253296 653 1084 657.477173 1084 663 C 1084 668.522827 1088.253296 673 1093.5 673 C 1098.746704 673 1103 668.522827 1103 663 Z"/>
        <path id="Ellipse-copy-20" fill="#ffffff" fill-rule="evenodd" stroke="#d5d5d5" stroke-width="20" stroke-linecap="round" stroke-linejoin="round" d="M 1136 296 C 1136 290.477173 1131.746704 286 1126.5 286 C 1121.253296 286 1117 290.477173 1117 296 C 1117 301.522827 1121.253296 306 1126.5 306 C 1131.746704 306 1136 301.522827 1136 296 Z"/>
        <path id="Ellipse-copy-30" fill="#ffffff" fill-rule="evenodd" stroke="#d5d5d5" stroke-width="20" stroke-linecap="round" stroke-linejoin="round" d="M 1056 810 C 1056 804.477173 1051.746704 800 1046.5 800 C 1041.253296 800 1037 804.477173 1037 810 C 1037 815.522827 1041.253296 820 1046.5 820 C 1051.746704 820 1056 815.522827 1056 810 Z"/>
        <path id="Ellipse-copy-29" fill="#ffffff" fill-rule="evenodd" stroke="#d5d5d5" stroke-width="20" stroke-linecap="round" stroke-linejoin="round" d="M 623 813 C 623 807.477173 618.746704 803 613.5 803 C 608.253296 803 604 807.477173 604 813 C 604 818.522827 608.253296 823 613.5 823 C 618.746704 823 623 818.522827 623 813 Z"/>
        <path id="Ellipse-copy-28" fill="#ffffff" fill-rule="evenodd" stroke="#d5d5d5" stroke-width="20" stroke-linecap="round" stroke-linejoin="round" d="M 978 759 C 978 753.477173 973.746704 749 968.5 749 C 963.253296 749 959 753.477173 959 759 C 959 764.522827 963.253296 769 968.5 769 C 973.746704 769 978 764.522827 978 759 Z"/>
        <path id="Ellipse-copy-27" fill="#ffffff" fill-rule="evenodd" stroke="#d5d5d5" stroke-width="20" stroke-linecap="round" stroke-linejoin="round" d="M 574 759 C 574 753.477173 569.746704 749 564.5 749 C 559.253296 749 555 753.477173 555 759 C 555 764.522827 559.253296 769 564.5 769 C 569.746704 769 574 764.522827 574 759 Z"/>
        <path id="Ellipse-copy-24" fill="#ffffff" fill-rule="evenodd" stroke="#d5d5d5" stroke-width="20" stroke-linecap="round" stroke-linejoin="round" d="M 521 1444 C 521 1438.477173 516.746704 1434 511.5 1434 C 506.253296 1434 502 1438.477173 502 1444 C 502 1449.522827 506.253296 1454 511.5 1454 C 516.746704 1454 521 1449.522827 521 1444 Z"/>
        <path id="Ellipse-copy-23" fill="#ffffff" fill-rule="evenodd" stroke="#d5d5d5" stroke-width="20" stroke-linecap="round" stroke-linejoin="round" d="M 421 1343 C 421 1337.477173 416.746704 1333 411.5 1333 C 406.253296 1333 402 1337.477173 402 1343 C 402 1348.522827 406.253296 1353 411.5 1353 C 416.746704 1353 421 1348.522827 421 1343 Z"/>
        <path id="Ellipse-copy-21" fill="#ffffff" fill-rule="evenodd" stroke="#d5d5d5" stroke-width="20" stroke-linecap="round" stroke-linejoin="round" d="M 506 775 C 506 769.477173 501.746704 765 496.5 765 C 491.253296 765 487 769.477173 487 775 C 487 780.522827 491.253296 785 496.5 785 C 501.746704 785 506 780.522827 506 775 Z"/>
        <path id="Ellipse-copy-19" fill="#ffffff" fill-rule="evenodd" stroke="#d5d5d5" stroke-width="20" stroke-linecap="round" stroke-linejoin="round" d="M 565 319 C 565 313.477173 560.746704 309 555.5 309 C 550.253296 309 546 313.477173 546 319 C 546 324.522827 550.253296 329 555.5 329 C 560.746704 329 565 324.522827 565 319 Z"/>
        <path id="Ellipse-copy-18" fill="#ffffff" fill-rule="evenodd" stroke="#d5d5d5" stroke-width="20" stroke-linecap="round" stroke-linejoin="round" d="M 440 703 C 440 697.477173 435.746704 693 430.5 693 C 425.253296 693 421 697.477173 421 703 C 421 708.522827 425.253296 713 430.5 713 C 435.746704 713 440 708.522827 440 703 Z"/>
        <path id="Ellipse-copy-17" fill="#ffffff" fill-rule="evenodd" stroke="#d5d5d5" stroke-width="20" stroke-linecap="round" stroke-linejoin="round" d="M 377 322 C 377 316.477173 372.746704 312 367.5 312 C 362.253296 312 358 316.477173 358 322 C 358 327.522827 362.253296 332 367.5 332 C 372.746704 332 377 327.522827 377 322 Z"/>
        <path id="Line" fill="#ffffff" fill-rule="evenodd" stroke="#d5d5d5" stroke-width="20" stroke-linecap="round" stroke-linejoin="round" d="M 432 408 L 431 692"/>
        <path id="Ellipse-copy-26" fill="#ffffff" fill-rule="evenodd" stroke="#d5d5d5" stroke-width="20" stroke-linecap="round" stroke-linejoin="round" d="M 507 1188 C 507 1182.477173 502.746704 1178 497.5 1178 C 492.253296 1178 488 1182.477173 488 1188 C 488 1193.522827 492.253296 1198 497.5 1198 C 502.746704 1198 507 1193.522827 507 1188 Z"/>
        <path id="Ellipse-copy-25" fill="#ffffff" fill-rule="evenodd" stroke="#d5d5d5" stroke-width="20" stroke-linecap="round" stroke-linejoin="round" d="M 506 853 C 506 847.477173 501.746704 843 496.5 843 C 491.253296 843 487 847.477173 487 853 C 487 858.522827 491.253296 863 496.5 863 C 501.746704 863 506 858.522827 506 853 Z"/>
        <path id="Line-copy-8" fill="#ffffff" fill-rule="evenodd" stroke="#d5d5d5" stroke-width="20" stroke-linecap="round" stroke-linejoin="round" d="M 495.999939 863 L 498.000397 1178"/>
        <path id="path2" fill="#ffffff" fill-rule="evenodd" stroke="#d5d5d5" stroke-width="20" stroke-linecap="round" stroke-linejoin="round" d="M 1192 1062 C 1192 1056.477173 1187.746704 1052 1182.5 1052 C 1177.253296 1052 1173 1056.477173 1173 1062 C 1173 1067.522827 1177.253296 1072 1182.5 1072 C 1187.746704 1072 1192 1067.522827 1192 1062 Z"/>
        <path id="path3" fill="#ffffff" fill-rule="evenodd" stroke="#d5d5d5" stroke-width="20" stroke-linecap="round" stroke-linejoin="round" d="M 1192 264 C 1192 258.477173 1187.746704 254 1182.5 254 C 1177.253296 254 1173 258.477173 1173 264 C 1173 269.522827 1177.253296 274 1182.5 274 C 1187.746704 274 1192 269.522827 1192 264 Z"/>
        <path id="path4" fill="#ffffff" fill-rule="evenodd" stroke="#d5d5d5" stroke-width="20" stroke-linecap="round" stroke-linejoin="round" d="M 1182 274 L 1183.009888 1052"/>
        <path id="Line-copy-7" fill="#ffffff" fill-rule="evenodd" stroke="#d5d5d5" stroke-width="20" stroke-linecap="round" stroke-linejoin="round" d="M 508.000092 1262 L 511 1444"/>
        <path id="Line-copy-2" fill="#ffffff" fill-rule="evenodd" stroke="#d5d5d5" stroke-width="20" stroke-linecap="round" stroke-linejoin="round" d="M 496 320 L 497 775"/>
        <path id="Line-copy" fill="#ffffff" fill-rule="evenodd" stroke="#d5d5d5" stroke-width="20" stroke-linecap="round" stroke-linejoin="round" d="M 432 405 L 374.001831 326.998901"/>
        <path id="Line-copy-4" fill="#ffffff" fill-rule="evenodd" stroke="#d5d5d5" stroke-width="20" stroke-linecap="round" stroke-linejoin="round" d="M 1037 375 L 1127.000488 296.000488"/>
        <path id="Line-copy-5" fill="#ffffff" fill-rule="evenodd" stroke="#d5d5d5" stroke-width="20" stroke-linecap="round" stroke-linejoin="round" d="M 1039 376 L 1093.00061 418"/>
        <path id="Line-copy-11" fill="#ffffff" fill-rule="evenodd" stroke="#d5d5d5" stroke-width="20" stroke-linecap="round" stroke-linejoin="round" d="M 1092.999634 418 L 1093.000366 653"/>
        <path id="Line-copy-12" fill="#ffffff" fill-rule="evenodd" stroke="#d5d5d5" stroke-width="20" stroke-linecap="round" stroke-linejoin="round" d="M 1117.999634 735.000061 L 1118.000366 970"/>
        <path id="Line-copy-13" fill="#ffffff" fill-rule="evenodd" stroke="#d5d5d5" stroke-width="20" stroke-linecap="round" stroke-linejoin="round" d="M 1115.999634 1056 L 1116.999756 1188"/>
        <path id="Line-copy-14" fill="#ffffff" fill-rule="evenodd" stroke="#d5d5d5" stroke-width="20" stroke-linecap="round" stroke-linejoin="round" d="M 1115.000122 1188.000488 L 1040.999878 1279.999878"/>
        <path id="Line-copy-15" fill="#ffffff" fill-rule="evenodd" stroke="#d5d5d5" stroke-width="20" stroke-linecap="round" stroke-linejoin="round" d="M 1251.999512 1280.001221 L 1102.999878 1281.999878"/>
        <path id="Line-copy-16" fill="#ffffff" fill-rule="evenodd" stroke="#d5d5d5" stroke-width="20" stroke-linecap="round" stroke-linejoin="round" d="M 1252.000366 1278.998779 L 1172.999023 1188"/>
        <path id="path5" fill="#ffffff" fill-rule="evenodd" stroke="#d5d5d5" stroke-width="20" stroke-linecap="round" stroke-linejoin="round" d="M 377 1294 C 377 1288.477173 372.746704 1284 367.5 1284 C 362.253296 1284 358 1288.477173 358 1294 C 358 1299.522827 362.253296 1304 367.5 1304 C 372.746704 1304 377 1299.522827 377 1294 Z"/>
        <path id="path6" fill="#ffffff" fill-rule="evenodd" stroke="#d5d5d5" stroke-width="20" stroke-linecap="round" stroke-linejoin="round" d="M 440 810 C 440 804.477173 435.746704 800 430.5 800 C 425.253296 800 421 804.477173 421 810 C 421 815.522827 425.253296 820 430.5 820 C 435.746704 820 440 815.522827 440 810 Z"/>
        <path id="path7" fill="#ffffff" fill-rule="evenodd" stroke="#d5d5d5" stroke-width="20" stroke-linecap="round" stroke-linejoin="round" d="M 431.000275 812 L 432 1236"/>
        <path id="path8" fill="#ffffff" fill-rule="evenodd" stroke="#d5d5d5" stroke-width="20" stroke-linecap="round" stroke-linejoin="round" d="M 367.999969 1290.999878 L 431.000305 1236.000244"/>
        <path id="Line-copy-6" fill="#ffffff" fill-rule="evenodd" stroke="#d5d5d5" stroke-width="20" stroke-linecap="round" stroke-linejoin="round" d="M 410.999969 1338.999878 L 500.000519 1263.00061"/>
        <path id="Line-copy-3" fill="#ffffff" fill-rule="evenodd" stroke="#d5d5d5" stroke-width="20" stroke-linecap="round" stroke-linejoin="round" d="M 550.000061 320 L 500.001831 319.998901"/>
        <path id="Line-copy-9" fill="#ffffff" fill-rule="evenodd" stroke="#d5d5d5" stroke-width="20" stroke-linecap="round" stroke-linejoin="round" d="M 969 759.001953 L 569.001831 758.99884"/>
        <path id="Line-copy-10" fill="#ffffff" fill-rule="evenodd" stroke="#d5d5d5" stroke-width="20" stroke-linecap="round" stroke-linejoin="round" d="M 1030 811.997681 L 615.001831 813.99884"/>
    </g>
    <g id="g2">
        <path id="path9" fill="#023670" fill-rule="evenodd" stroke="#023670" stroke-width="20" stroke-linecap="round" stroke-linejoin="round" d="M 371 457 L 377.008179 1166.999878"/>
        <path id="path10" fill="#023670" fill-rule="evenodd" stroke="#023670" stroke-width="20" stroke-linecap="round" stroke-linejoin="round" d="M 324 354 L 371 457"/>
        <path id="path11" fill="#023670" fill-rule="evenodd" stroke="#023670" stroke-width="20" stroke-linecap="round" stroke-linejoin="round" d="M 377 1167 L 261 1270"/>
        <path id="path12" fill="#023670" fill-rule="evenodd" stroke="#023670" stroke-width="20" stroke-linecap="round" stroke-linejoin="round" d="M 324 354 L 216 271"/>
        <path id="path13" fill="#023670" fill-rule="evenodd" stroke="#023670" stroke-width="20" stroke-linecap="round" stroke-linejoin="round" d="M 297 271 L 718 271"/>
        <path id="path14" fill="#023670" fill-rule="evenodd" stroke="#023670" stroke-width="20" stroke-linecap="round" stroke-linejoin="round" d="M 605 354 L 718 271"/>
        <path id="path15" fill="#023670" fill-rule="evenodd" stroke="#023670" stroke-width="20" stroke-linecap="round" stroke-linejoin="round" d="M 581 405 L 552 457"/>
        <path id="path16" fill="#023670" fill-rule="evenodd" stroke="#023670" stroke-width="20" stroke-linecap="round" stroke-linejoin="round" d="M 550 702 L 550 457"/>
        <path id="path17" fill="#023670" fill-rule="evenodd" stroke="#023670" stroke-width="20" stroke-linecap="round" stroke-linejoin="round" d="M 984 702 L 550 702"/>
        <path id="path18" fill="#023670" fill-rule="evenodd" stroke="#023670" stroke-width="20" stroke-linecap="round" stroke-linejoin="round" d="M 1042 702 L 1038.998779 457"/>
        <path id="path19" fill="#023670" fill-rule="evenodd" stroke="#023670" stroke-width="20" stroke-linecap="round" stroke-linejoin="round" d="M 912 380 L 1036.999756 457.000366"/>
        <path id="path20" fill="#023670" fill-rule="evenodd" stroke="#023670" stroke-width="20" stroke-linecap="round" stroke-linejoin="round" d="M 958 354 L 1104 238"/>
        <path id="path21" fill="#023670" fill-rule="evenodd" stroke="#023670" stroke-width="20" stroke-linecap="round" stroke-linejoin="round" d="M 1241 51 L 1104 238"/>
        <path id="path22" fill="#023670" fill-rule="evenodd" stroke="#023670" stroke-width="20" stroke-linecap="round" stroke-linejoin="round" d="M 1241 1113 L 1241 51"/>
        <path id="path23" fill="#023670" fill-rule="evenodd" stroke="#023670" stroke-width="20" stroke-linecap="round" stroke-linejoin="round" d="M 1241 1167 L 1392 1325"/>
        <path id="path24" fill="#023670" fill-rule="evenodd" stroke="#023670" stroke-width="20" stroke-linecap="round" stroke-linejoin="round" d="M 862 1325 L 1392 1325"/>
        <path id="path25" fill="#023670" fill-rule="evenodd" stroke="#023670" stroke-width="20" stroke-linecap="round" stroke-linejoin="round" d="M 938.99939 1279.99939 L 1041 1167"/>
        <path id="path26" fill="#023670" fill-rule="evenodd" stroke="#023670" stroke-width="20" stroke-linecap="round" stroke-linejoin="round" d="M 1041 873 L 1041 1167"/>
        <path id="path27" fill="#023670" fill-rule="evenodd" stroke="#023670" stroke-width="20" stroke-linecap="round" stroke-linejoin="round" d="M 776 873 L 1037 873"/>
        <path id="path28" fill="#023670" fill-rule="evenodd" stroke="#023670" stroke-width="20" stroke-linecap="round" stroke-linejoin="round" d="M 662 873 L 567 873"/>
        <path id="path29" fill="#023670" fill-rule="evenodd" stroke="#023670" stroke-width="20" stroke-linecap="round" stroke-linejoin="round" d="M 567 1600 L 567 873"/>
        <path id="path30" fill="#023670" fill-rule="evenodd" stroke="#023670" stroke-width="20" stroke-linecap="round" stroke-linejoin="round" d="M 407 1389 L 560 1600"/>
        <path id="path31" fill="#023670" fill-rule="evenodd" stroke="#023670" stroke-width="20" stroke-linecap="round" stroke-linejoin="round" d="M 297 1316 L 407 1389"/>
        <path id="Ellipse-copy" fill="#023670" fill-rule="evenodd" stroke="#023670" stroke-width="20" stroke-linecap="round" stroke-linejoin="round" d="M 969 354.5 C 969 348.70105 964.075134 344 958 344 C 951.924866 344 947 348.70105 947 354.5 C 947 360.29895 951.924866 365 958 365 C 964.075134 365 969 360.29895 969 354.5 Z"/>
        <path id="Ellipse-copy-2" fill="#023670" fill-rule="evenodd" stroke="#023670" stroke-width="20" stroke-linecap="round" stroke-linejoin="round" d="M 912 375.5 C 912 369.70105 907.075134 365 901 365 C 894.924866 365 890 369.70105 890 375.5 C 890 381.29895 894.924866 386 901 386 C 907.075134 386 912 381.29895 912 375.5 Z"/>
        <path id="Ellipse-copy-5" fill="#023670" fill-rule="evenodd" stroke="#023670" stroke-width="20" stroke-linecap="round" stroke-linejoin="round" d="M 594 405.5 C 594 399.70105 589.075134 395 583 395 C 576.924866 395 572 399.70105 572 405.5 C 572 411.29895 576.924866 416 583 416 C 589.075134 416 594 411.29895 594 405.5 Z"/>
        <path id="Ellipse-copy-9" fill="#023670" fill-rule="evenodd" stroke="#023670" stroke-width="20" stroke-linecap="round" stroke-linejoin="round" d="M 673 873.5 C 673 867.700989 668.075134 863 662 863 C 655.924866 863 651 867.700989 651 873.5 C 651 879.299011 655.924866 884 662 884 C 668.075134 884 673 879.299011 673 873.5 Z"/>
        <path id="Ellipse-copy-11" fill="#023670" fill-rule="evenodd" stroke="#023670" stroke-width="20" stroke-linecap="round" stroke-linejoin="round" d="M 261 1280.5 C 261 1274.70105 256.075134 1270 250 1270 C 243.924866 1270 239 1274.70105 239 1280.5 C 239 1286.29895 243.924866 1291 250 1291 C 256.075134 1291 261 1286.29895 261 1280.5 Z"/>
        <path id="Ellipse-copy-12" fill="#023670" fill-rule="evenodd" stroke="#023670" stroke-width="20" stroke-linecap="round" stroke-linejoin="round" d="M 308 1314.5 C 308 1308.70105 303.075134 1304 297 1304 C 290.924866 1304 286 1308.70105 286 1314.5 C 286 1320.29895 290.924866 1325 297 1325 C 303.075134 1325 308 1320.29895 308 1314.5 Z"/>
        <path id="Ellipse-copy-10" fill="#023670" fill-rule="evenodd" stroke="#023670" stroke-width="20" stroke-linecap="round" stroke-linejoin="round" d="M 778 873.5 C 778 867.700989 773.075134 863 767 863 C 760.924866 863 756 867.700989 756 873.5 C 756 879.299011 760.924866 884 767 884 C 773.075134 884 778 879.299011 778 873.5 Z"/>
        <path id="Ellipse-copy-13" fill="#023670" fill-rule="evenodd" stroke="#023670" stroke-width="20" stroke-linecap="round" stroke-linejoin="round" d="M 947 1280.5 C 947 1274.70105 942.075134 1270 936 1270 C 929.924866 1270 925 1274.70105 925 1280.5 C 925 1286.29895 929.924866 1291 936 1291 C 942.075134 1291 947 1286.29895 947 1280.5 Z"/>
        <path id="Ellipse-copy-15" fill="#023670" fill-rule="evenodd" stroke="#023670" stroke-width="20" stroke-linecap="round" stroke-linejoin="round" d="M 1252 1167.5 C 1252 1161.70105 1247.075073 1157 1241 1157 C 1234.924927 1157 1230 1161.70105 1230 1167.5 C 1230 1173.29895 1234.924927 1178 1241 1178 C 1247.075073 1178 1252 1173.29895 1252 1167.5 Z"/>
        <path id="Ellipse-copy-16" fill="#023670" fill-rule="evenodd" stroke="#023670" stroke-width="20" stroke-linecap="round" stroke-linejoin="round" d="M 1252 1113.5 C 1252 1107.70105 1247.075073 1103 1241 1103 C 1234.924927 1103 1230 1107.70105 1230 1113.5 C 1230 1119.29895 1234.924927 1124 1241 1124 C 1247.075073 1124 1252 1119.29895 1252 1113.5 Z"/>
        <path id="Ellipse-copy-14" fill="#023670" fill-rule="evenodd" stroke="#023670" stroke-width="20" stroke-linecap="round" stroke-linejoin="round" d="M 884 1324.5 C 884 1318.70105 879.075134 1314 873 1314 C 866.924866 1314 862 1318.70105 862 1324.5 C 862 1330.29895 866.924866 1335 873 1335 C 879.075134 1335 884 1330.29895 884 1324.5 Z"/>
        <path id="Ellipse-copy-6" fill="#023670" fill-rule="evenodd" stroke="#023670" stroke-width="20" stroke-linecap="round" stroke-linejoin="round" d="M 615 354.5 C 615 348.70105 610.075134 344 604 344 C 597.924866 344 593 348.70105 593 354.5 C 593 360.29895 597.924866 365 604 365 C 610.075134 365 615 360.29895 615 354.5 Z"/>
        <path id="Ellipse-copy-7" fill="#023670" fill-rule="evenodd" stroke="#023670" stroke-width="20" stroke-linecap="round" stroke-linejoin="round" d="M 308 271.5 C 308 265.70105 303.075134 261 297 261 C 290.924866 261 286 265.70105 286 271.5 C 286 277.29895 290.924866 282 297 282 C 303.075134 282 308 277.29895 308 271.5 Z"/>
        <path id="Ellipse-copy-8" fill="#023670" fill-rule="evenodd" stroke="#023670" stroke-width="20" stroke-linecap="round" stroke-linejoin="round" d="M 227 271.5 C 227 265.70105 222.075134 261 216 261 C 209.924866 261 205 265.70105 205 271.5 C 205 277.29895 209.924866 282 216 282 C 222.075134 282 227 277.29895 227 271.5 Z"/>
        <path id="Ellipse-copy-3" fill="#023670" fill-rule="evenodd" stroke="#023670" stroke-width="20" stroke-linecap="round" stroke-linejoin="round" d="M 1052 702.5 C 1052 696.700989 1047.075073 692 1041 692 C 1034.924927 692 1030 696.700989 1030 702.5 C 1030 708.299011 1034.924927 713 1041 713 C 1047.075073 713 1052 708.299011 1052 702.5 Z"/>
        <path id="Ellipse-copy-4" fill="#023670" fill-rule="evenodd" stroke="#023670" stroke-width="20" stroke-linecap="round" stroke-linejoin="round" d="M 1000 702.5 C 1000 696.700989 995.075134 692 989 692 C 982.924866 692 978 696.700989 978 702.5 C 978 708.299011 982.924866 713 989 713 C 995.075134 713 1000 708.299011 1000 702.5 Z"/>
    </g>
</svg>
